# xmcd CD database file
#
# Track frame offsets:
#	150
#	16040
#	28492
#	40047
#	52317
#	64432
#	77142
#	89950
#	102292
#	112837
#	123905
#	136802
#	146332
#	156612
#	165825
#	179615
#	191845
#	200780
#	213492
#	226152
#
# Disc length: 3183 seconds
#
# Revision: 4
# Processed by: cddbd v1.5.1PL0 Copyright (c) Steve Scherf et al.
# Submitted via: CDex 1.50
#
DISCID=260c6d14
DTITLE=Golden Gate Quartet - Gospels and Spirituals
DYEAR=1998
DGENRE=Gospel
TTITLE0=Swing down, chariot
TTITLE1=Wade in the water
TTITLE2=God's gonna cut 'em down
TTITLE3=Daniel saw the stone
TTITLE4=Anyhow
TTITLE5=Jezebel
TTITLE6='way down in Egypt land
TTITLE7=The valley of time
TTITLE8=My walking stick
TTITLE9=What a time
TTITLE10=You better mind
TTITLE11=Lead me on and on
TTITLE12=Dipsy doodle
TTITLE13=Let that liar alone
TTITLE14=Cheer the weary traveler
TTITLE15=He said He calm the ocean
TTITLE16=Bonnett
TTITLE17=Bedside of a neighbor
TTITLE18=Massa's in the cold cold ground
TTITLE19=Preacher and the bear
EXTD=YEAR: 1998
EXTT0=
EXTT1=
EXTT2=
EXTT3=
EXTT4=
EXTT5=
EXTT6=
EXTT7=
EXTT8=
EXTT9=
EXTT10=
EXTT11=
EXTT12=
EXTT13=
EXTT14=
EXTT15=
EXTT16=
EXTT17=
EXTT18=
EXTT19=
PLAYORDER=
